<?xml version="1.0" encoding="UTF-8" standalone="no"?><!DOCTYPE svg PUBLIC "-//W3C//DTD SVG 1.1//EN" "http://www.w3.org/Graphics/SVG/1.1/DTD/svg11.dtd"><!-- Generated by graphviz version 2.40.1 (20161225.0304)
 --><!-- Title: endure Pages: 1 --><svg xmlns="http://www.w3.org/2000/svg" xmlns:xlink="http://www.w3.org/1999/xlink" width="625pt" height="479pt" viewBox="0.00 0.00 624.94 478.79">
<g id="graph0" class="graph" transform="scale(1 1) rotate(0) translate(4 474.786)">
<title>endure</title>
<polygon fill="#ffffff" stroke="transparent" points="-4,4 -4,-474.786 620.9357,-474.786 620.9357,4 -4,4"/>
<!-- checker -->
<g id="node1" class="node">
<title>checker</title>
<ellipse fill="none" stroke="#000000" cx="412.2429" cy="-377.2862" rx="41.1103" ry="18"/>
<text text-anchor="middle" x="412.2429" y="-373.0862" font-family="Times,serif" font-size="14.00" fill="#000000">checker</text>
</g>
<!-- config -->
<g id="node2" class="node">
<title>config</title>
<ellipse fill="none" stroke="#000000" cx="463.8878" cy="-235.393" rx="35.9154" ry="18"/>
<text text-anchor="middle" x="463.8878" y="-231.193" font-family="Times,serif" font-size="14.00" fill="#000000">config</text>
</g>
<!-- checker&#45;&gt;config -->
<g id="edge1" class="edge">
<title>checker-&gt;config</title>
<path fill="none" stroke="#000000" d="M418.7837,-359.3154C427.6313,-335.0068 443.4953,-291.4209 453.8554,-262.9568"/>
<polygon fill="#000000" stroke="#000000" points="457.2687,-263.812 457.4,-253.218 450.6908,-261.4178 457.2687,-263.812"/>
</g>
<!-- logger -->
<g id="node3" class="node">
<title>logger</title>
<ellipse fill="none" stroke="#000000" cx="35.7071" cy="-310.8928" rx="35.9154" ry="18"/>
<text text-anchor="middle" x="35.7071" y="-306.6928" font-family="Times,serif" font-size="14.00" fill="#000000">logger</text>
</g>
<!-- checker&#45;&gt;logger -->
<g id="edge2" class="edge">
<title>checker-&gt;logger</title>
<path fill="none" stroke="#000000" d="M374.0665,-370.5547C303.7112,-358.1492 154.0014,-331.7513 79.586,-318.6299"/>
<polygon fill="#000000" stroke="#000000" points="80.0574,-315.1591 69.6015,-316.8693 78.8418,-322.0527 80.0574,-315.1591"/>
</g>
<!-- logger&#45;&gt;config -->
<g id="edge4" class="edge">
<title>logger-&gt;config</title>
<path fill="none" stroke="#000000" d="M69.6636,-304.9054C146.6435,-291.3317 334.3698,-258.2305 420.0048,-243.1308"/>
<polygon fill="#000000" stroke="#000000" points="420.6875,-246.5645 429.9277,-241.3811 419.4719,-239.6708 420.6875,-246.5645"/>
</g>
<!-- gzip -->
<g id="node4" class="node">
<title>gzip</title>
<ellipse fill="none" stroke="#000000" cx="531.6651" cy="-102.393" rx="27.8286" ry="18"/>
<text text-anchor="middle" x="531.6651" y="-98.193" font-family="Times,serif" font-size="14.00" fill="#000000">gzip</text>
</g>
<!-- headers -->
<g id="node5" class="node">
<title>headers</title>
<ellipse fill="none" stroke="#000000" cx="576.4118" cy="-235.393" rx="40.548" ry="18"/>
<text text-anchor="middle" x="576.4118" y="-231.193" font-family="Times,serif" font-size="14.00" fill="#000000">headers</text>
</g>
<!-- headers&#45;&gt;config -->
<g id="edge3" class="edge">
<title>headers-&gt;config</title>
<path fill="none" stroke="#000000" d="M535.788,-235.393C527.3742,-235.393 518.4534,-235.393 509.8639,-235.393"/>
<polygon fill="#000000" stroke="#000000" points="509.607,-231.8931 499.607,-235.393 509.607,-238.8931 509.607,-231.8931"/>
</g>
<!-- metrics -->
<g id="node6" class="node">
<title>metrics</title>
<ellipse fill="none" stroke="#000000" cx="412.2429" cy="-93.4998" rx="39.4196" ry="18"/>
<text text-anchor="middle" x="412.2429" y="-89.2998" font-family="Times,serif" font-size="14.00" fill="#000000">metrics</text>
</g>
<!-- metrics&#45;&gt;config -->
<g id="edge6" class="edge">
<title>metrics-&gt;config</title>
<path fill="none" stroke="#000000" d="M418.7837,-111.4707C427.6313,-135.7792 443.4953,-179.3651 453.8554,-207.8292"/>
<polygon fill="#000000" stroke="#000000" points="450.6908,-209.3682 457.4,-217.5681 457.2687,-206.974 450.6908,-209.3682"/>
</g>
<!-- metrics&#45;&gt;logger -->
<g id="edge5" class="edge">
<title>metrics-&gt;logger</title>
<path fill="none" stroke="#000000" d="M387.5373,-107.7636C321.7958,-145.7194 142.5487,-249.2078 68.4432,-291.9926"/>
<polygon fill="#000000" stroke="#000000" points="66.4391,-289.1082 59.5289,-297.1393 69.9391,-295.1704 66.4391,-289.1082"/>
</g>
<!-- redis -->
<g id="node7" class="node">
<title>redis</title>
<ellipse fill="none" stroke="#000000" cx="281.4734" cy="-18" rx="29.6127" ry="18"/>
<text text-anchor="middle" x="281.4734" y="-13.8" font-family="Times,serif" font-size="14.00" fill="#000000">redis</text>
</g>
<!-- redis&#45;&gt;config -->
<g id="edge8" class="edge">
<title>redis-&gt;config</title>
<path fill="none" stroke="#000000" d="M295.1841,-34.3398C326.9308,-72.174 405.6399,-165.9759 443.2445,-210.7914"/>
<polygon fill="#000000" stroke="#000000" points="440.6581,-213.1541 449.7672,-218.5648 446.0204,-208.6545 440.6581,-213.1541"/>
</g>
<!-- redis&#45;&gt;logger -->
<g id="edge7" class="edge">
<title>redis-&gt;logger</title>
<path fill="none" stroke="#000000" d="M267.9098,-34.1644C227.1471,-82.7435 105.5381,-227.6715 56.5241,-286.0841"/>
<polygon fill="#000000" stroke="#000000" points="53.5843,-284.1426 49.8376,-294.0528 58.9466,-288.6421 53.5843,-284.1426"/>
</g>
<!-- reload -->
<g id="node8" class="node">
<title>reload</title>
<ellipse fill="none" stroke="#000000" cx="281.4734" cy="-452.786" rx="35.3315" ry="18"/>
<text text-anchor="middle" x="281.4734" y="-448.586" font-family="Times,serif" font-size="14.00" fill="#000000">reload</text>
</g>
<!-- reload&#45;&gt;config -->
<g id="edge10" class="edge">
<title>reload-&gt;config</title>
<path fill="none" stroke="#000000" d="M295.4842,-436.0885C327.4495,-397.9939 405.8819,-304.5217 443.3335,-259.8887"/>
<polygon fill="#000000" stroke="#000000" points="446.0824,-262.0576 449.8292,-252.1474 440.7201,-257.5581 446.0824,-262.0576"/>
</g>
<!-- reload&#45;&gt;logger -->
<g id="edge9" class="edge">
<title>reload-&gt;logger</title>
<path fill="none" stroke="#000000" d="M257.9083,-439.1807C213.6848,-413.6483 118.2025,-358.5216 68.0211,-329.5493"/>
<polygon fill="#000000" stroke="#000000" points="69.6111,-326.4259 59.2009,-324.457 66.1111,-332.4881 69.6111,-326.4259"/>
</g>
<!-- resetter -->
<g id="node9" class="node">
<title>resetter</title>
<ellipse fill="none" stroke="#000000" cx="132.7678" cy="-426.5652" rx="39.3984" ry="18"/>
<text text-anchor="middle" x="132.7678" y="-422.3652" font-family="Times,serif" font-size="14.00" fill="#000000">resetter</text>
</g>
<!-- reload&#45;&gt;resetter -->
<g id="edge11" class="edge">
<title>reload-&gt;resetter</title>
<path fill="none" stroke="#000000" d="M248.1009,-446.9016C227.9026,-443.3401 201.8366,-438.7439 179.5962,-434.8224"/>
<polygon fill="#000000" stroke="#000000" points="180.1376,-431.3639 169.6817,-433.0742 178.922,-438.2575 180.1376,-431.3639"/>
</g>
<!-- resetter&#45;&gt;logger -->
<g id="edge12" class="edge">
<title>resetter-&gt;logger</title>
<path fill="none" stroke="#000000" d="M118.4461,-409.4974C102.0084,-389.9077 74.9173,-357.6218 56.2379,-335.3605"/>
<polygon fill="#000000" stroke="#000000" points="58.881,-333.0653 49.7719,-327.6546 53.5187,-337.5649 58.881,-333.0653"/>
</g>
<!-- rpc -->
<g id="node10" class="node">
<title>rpc</title>
<ellipse fill="none" stroke="#000000" cx="132.7678" cy="-44.2208" rx="27" ry="18"/>
<text text-anchor="middle" x="132.7678" y="-40.0208" font-family="Times,serif" font-size="14.00" fill="#000000">rpc</text>
</g>
<!-- rpc&#45;&gt;config -->
<g id="edge13" class="edge">
<title>rpc-&gt;config</title>
<path fill="none" stroke="#000000" d="M153.4808,-56.1795C209.3277,-88.4227 363.359,-177.3527 431.1448,-216.4889"/>
<polygon fill="#000000" stroke="#000000" points="429.7078,-219.7006 440.1181,-221.6696 433.2078,-213.6384 429.7078,-219.7006"/>
</g>
<!-- rpc&#45;&gt;logger -->
<g id="edge14" class="edge">
<title>rpc-&gt;logger</title>
<path fill="none" stroke="#000000" d="M126.3994,-61.7179C109.8827,-107.097 65.5725,-228.8383 45.6502,-283.5745"/>
<polygon fill="#000000" stroke="#000000" points="42.3576,-282.3876 42.2262,-292.9816 48.9354,-284.7818 42.3576,-282.3876"/>
</g>
<!-- static -->
<g id="node11" class="node">
<title>static</title>
<ellipse fill="none" stroke="#000000" cx="35.7071" cy="-159.8932" rx="31.3333" ry="18"/>
<text text-anchor="middle" x="35.7071" y="-155.6932" font-family="Times,serif" font-size="14.00" fill="#000000">static</text>
</g>
<!-- static&#45;&gt;config -->
<g id="edge15" class="edge">
<title>static-&gt;config</title>
<path fill="none" stroke="#000000" d="M65.8159,-165.2022C140.1736,-178.3135 332.7753,-212.2743 419.9157,-227.6396"/>
<polygon fill="#000000" stroke="#000000" points="419.5489,-231.1288 430.0048,-229.4185 420.7645,-224.2351 419.5489,-231.1288"/>
</g>
<!-- static&#45;&gt;logger -->
<g id="edge16" class="edge">
<title>static-&gt;logger</title>
<path fill="none" stroke="#000000" d="M35.7071,-178.1073C35.7071,-204.0691 35.7071,-251.9543 35.7071,-282.5696"/>
<polygon fill="#000000" stroke="#000000" points="32.2072,-282.6141 35.7071,-292.6141 39.2072,-282.6142 32.2072,-282.6141"/>
</g>
</g>
</svg>